<?xml version="1.0" encoding="UTF-8"?>
<svg id="Layer_1" data-name="Layer 1" xmlns="http://www.w3.org/2000/svg" viewBox="0 0 1920 830.03">
  <defs>
    <style>
      .cls-1 {
        fill: #ea7628;
      }
    </style>
  </defs>
  <g>
    <polygon class="cls-1" points="651.85 494.58 738.98 494.58 742.35 465.74 684.26 465.74 694.36 379.19 752.45 379.19 755.81 350.34 668.68 350.34 651.85 494.58"/>
    <path class="cls-1" d="M687.63,436.89h0s58.09,0,58.09,0l3.37-28.85h-29.04c-16.56,0-30.49,12.4-32.41,28.85Z"/>
    <path class="cls-1" d="M826.64,436.89h0l6.73,57.69h29.04l-3.37-28.85c-1.92-16.45-15.85-28.85-32.41-28.85Z"/>
    <path class="cls-1" d="M830.71,350.34h-53.12l-16.83,144.24h29.04l6.73-57.7h34.17c22.02,0,40.52-16.53,43-38.41h0c2.9-25.66-17.17-48.13-43-48.13ZM844.96,395.28h0c-.85,7.27-7.01,12.76-14.33,12.76h-30.72l3.37-28.85h27.36c8.63,0,15.32,7.52,14.33,16.09Z"/>
    <path class="cls-1" d="M945.12,350.34h0c-29.28,0-53.91,21.93-57.31,51.01l-3.37,28.85c-4,34.28,22.79,64.38,57.31,64.38h0c29.28,0,53.91-21.93,57.31-51.01l3.37-28.85c4-34.28-22.79-64.38-57.31-64.38ZM973.58,411.36l-3.37,28.85c-1.69,14.44-13.92,25.33-28.46,25.33-8.29,0-15.89-3.41-21.4-9.6-5.51-6.19-8.02-14.14-7.06-22.37l3.37-28.85c1.68-14.44,13.92-25.33,28.46-25.33,8.29,0,15.89,3.41,21.4,9.6,5.51,6.19,8.02,14.14,7.06,22.37Z"/>
  </g>
  <g>
    <path class="cls-1" d="M458.84,419.88l12.65-4.41-23.83-15.89s9.71-7.06,25.01.29c1.27.61,2.55,1.14,3.81,1.59,11.04,3.95,23.28,2.62,33.43-3.25l39.82-19.86-24.39,4.75-50.61-32.36c12.36-7.36,29.72-9.12,47.37-2.06,17.65,7.06,46.07,14.83,65.91,10l30.73-7.74s-16.88,0-16.88,0l-8.7-74.6h-42.6l-76.92,74.87-85.24,82.38c15.65,2.89,38.2-.3,70.45-13.71Z"/>
    <path class="cls-1" d="M407.46,457.59c-34.79,15.98-66.78,37.54-94.71,63.85l-36.42,32.25h44.58c1.37-3.3,2.36-5.76,3.61-8.38,16.78-35.29,49.31-65.65,82.94-87.72Z"/>
    <path class="cls-1" d="M651.85,359.91s-5.41,5.86-19.88,11.38l-73.96,26.79-85.7,33.51c-22.22,8.69-40.99,24.68-52.41,45.63-3.68,6.75-6.4,13.63-7.64,20.2-.93,4.89-.97,9.54-.21,13.89,25.94-11.07,53.87-16.82,82.14-16.82h124.73l-12.61-105.81c15.66-6.42,42.14-15.63,45.56-28.77ZM579.78,431.98l-24.13-18.25,37.36-13.82s1.76,25.01-13.24,32.07Z"/>
    <path class="cls-1" d="M352.87,515.99c-8.37,11.29-15.74,23.63-21.36,36.68,17.56-3.92,38.2-18.35,57.37-29.59-5.95-17.71,6.72-42.32,18.74-55.46,7.15-7.83,15.61-14.66,24.78-20.41-24.64,11.37-60.93,43.71-79.53,68.78Z"/>
  </g>
  <g>
    <path class="cls-1" d="M1123.36,390.11c2.9-25.13-16.22-39.76-51.03-39.76h-40.18c-.79,14.01-1.71,25.55-4.45,49.24l-5.28,45.74c-2.57,22.25-4.32,33.79-6.93,49.24h27.4c.96-15.45,2.09-26.99,4.66-49.24l1.57-13.6h12.98c34.2,0,58.33-16.28,61.26-41.62ZM1098.15,390.73c-2.26,19.57-16.18,31.31-36.17,31.31h-2c-5.56,0-10.23,4.17-10.87,9.68l1.12-9.68,7.17-62.01h12.15c19.57,0,30.79,11.74,28.59,30.7Z"/>
    <path class="cls-1" d="M1175.95,350.34l-79.71,144.23h16.07c9.08-19.78,17.45-36.88,26.25-54.19h40.75c5.69,0,10.3-4.61,10.3-10.3h-45.74c9.28-17.93,19.25-36.47,30.54-57.48l15.2,57.48,2.73,10.3c4.71,18.13,8.86,35.64,12.69,54.19h28.23l-39.37-144.23h-17.93Z"/>
    <path class="cls-1" d="M1586.36,350.34l-79.71,144.23h16.07c9.08-19.78,17.45-36.88,26.25-54.19h40.75c5.69,0,10.3-4.61,10.3-10.3h-45.74c9.28-17.93,19.25-36.47,30.54-57.48l15.2,57.48,2.73,10.3c4.71,18.13,8.86,35.64,12.69,54.19h28.23l-39.37-144.23h-17.93Z"/>
    <path class="cls-1" d="M1280.08,399.58c2.55-22.05,4.19-34.41,6.72-49.24h-27.4c-.89,14.83-1.9,27.2-4.43,49.04l-5.31,45.95c-2.52,21.84-4.36,34.2-6.93,49.24h25.89l1.62-9.89,9.83-85.09Z"/>
    <path class="cls-1" d="M1420.25,466.75l-36.82-116.41h-21.43l-32.32,144.22h15.66c4.93-37.29,11.22-72.11,20.75-115.38l36.51,115.58h13.39l62.1-113.11-.55,52.95c-.29,23.9-.8,40.79-2.39,59.96h27.2l1-144.22h-21.43l-61.66,116.41Z"/>
    <path class="cls-1" d="M1268.68,494.23l-.06.34h56.73l1.71-14.83c-12.1,3.09-26.73,4.94-47.14,4.94-5.59,0-10.35,4.05-11.25,9.56Z"/>
  </g>
</svg>